<svg version="1.1" xmlns="http://www.w3.org/2000/svg" viewBox="-2310.982838636286 -1503.45 8014.182838636286 2310.9"><desc>Created with Snap</desc><defs></defs><g><g transform="matrix(21.2067,0,0,21.2067,-2215.8233,-1408.3434)"><g><path d="M36.471,36.327c6.055-6.026,6.055-15.792,0-21.807c-6.055-6.025-15.876-6.025-21.931,0c-6.055,6.016-6.055,15.781,0,21.807   C20.595,42.342,30.417,42.342,36.471,36.327z" fill="#143d59" style=""></path><polygon points="65.612,28.914 57.194,20.066 59.519,40.995 25.224,62.498 35.993,73.201 69.323,53.064  " fill="#143d59" style=""></polygon><path d="M89.489,78.914l-5.615-6.113c-0.605,2.148-2.168,4.609-4.375,6.797c-2.256,2.236-4.668,3.73-6.777,4.326l6.133,5.566   c1.318,1.309,4.766,0.01,7.705-2.91C89.489,83.66,90.808,80.232,89.489,78.914z" fill="#143d59" style=""></path><path d="M81.657,70.945c0-0.293-0.049-0.527-0.137-0.703l-0.615-0.674l-0.4-0.4l0.02-0.02l-9.355-10.195l-15.586,9.424   l14.609,13.252c1.191,0.439,4.404-0.684,7.539-3.799C80.446,75.135,81.657,72.43,81.657,70.945z" fill="#143d59" style=""></path><path d="M51.521,14.275l-5.811,3.782c0.85,2.332,1.299,4.812,1.299,7.361c0,5.732-2.236,11.114-6.309,15.157   c-4.063,4.043-9.453,6.26-15.193,6.26c-1.65,0-3.271-0.186-4.844-0.547l0.811,12.48l0.112,0.107l32.62-20.449L51.521,14.275z" fill="#143d59" style=""></path></g><desc>Created with Snap</desc><defs></defs></g><g><g transform="matrix(1,0,0,-1,0,0)"><path d="M233 725L309 720Q337 596 424 369Q511 143 539 31Q539 2 529 -13Q519 -27 504 -27Q491 -27 479 -17Q468 -6 464 13Q455 57 406 189Q200 215 147 221Q134 185 115 104Q96 23 85 -8Q70 -26 51 -26Q30 -26 15 -8Q0 11 0 38Q32 155 116 382Q200 609 233 725ZM268 624Q248 503 157 269L269 269Q345 269 396 264Q293 485 268 624ZM647 400L651 4Q636 -4 615 -4Q599 -4 579 1Q582 64 583 249Q584 434 591 523L636 513L639 457Q692 513 761 513Q796 513 817 508Q838 503 857 483Q877 464 887 432Q897 400 905 340Q913 281 916 201Q920 122 921 1Q915 -1 898 -1Q862 -1 842 8Q838 24 838 61Q838 80 839 132Q841 185 841 214Q841 262 837 298Q834 334 824 369Q815 404 795 423Q776 442 747 442Q714 442 695 437Q677 432 669 425Q662 418 647 400ZM1070 400L1074 4Q1059 -4 1038 -4Q1022 -4 1002 1Q1005 64 1006 249Q1007 434 1014 523L1059 513L1062 457Q1115 513 1184 513Q1219 513 1240 508Q1261 503 1280 483Q1300 464 1310 432Q1320 400 1328 340Q1336 281 1339 201Q1343 122 1344 1Q1338 -1 1321 -1Q1285 -1 1265 8Q1261 24 1261 61Q1261 80 1262 132Q1264 185 1264 214Q1264 262 1260 298Q1257 334 1247 369Q1238 404 1218 423Q1199 442 1170 442Q1137 442 1118 437Q1100 432 1092 425Q1085 418 1070 400ZM1425 213Q1425 253 1433 302Q1442 351 1459 405Q1476 459 1510 495Q1544 531 1589 531Q1685 531 1743 444Q1801 358 1801 252Q1801 207 1791 162Q1782 118 1762 75Q1742 32 1704 3Q1667 -25 1617 -29Q1525 -17 1475 49Q1425 116 1425 213ZM1595 479Q1560 475 1536 415Q1512 355 1505 298Q1498 242 1498 199Q1498 143 1532 95Q1567 48 1610 48Q1641 48 1666 72Q1691 96 1705 131Q1720 167 1727 203Q1735 239 1735 267Q1735 349 1698 410Q1661 471 1595 479ZM2179 502L2227 493L2227 483Q2227 415 2235 253Q2244 91 2251 3Q2231 -5 2213 -5Q2197 -5 2177 0L2169 26Q2105 -10 2047 -10Q2004 -10 1972 10Q1941 30 1924 59Q1907 89 1897 132Q1887 176 1884 211Q1882 247 1882 291Q1882 419 1898 526L1943 516Q1950 483 1950 444Q1950 422 1947 368Q1945 314 1945 286Q1945 237 1949 201Q1954 166 1966 132Q1979 99 2005 81Q2031 63 2070 63Q2114 63 2165 83Q2167 120 2169 272Q2171 425 2179 502ZM2400 400L2404 4Q2389 -4 2368 -4Q2352 -4 2332 1Q2335 64 2336 249Q2337 434 2344 523L2389 513L2392 457Q2445 513 2514 513Q2549 513 2570 508Q2591 503 2610 483Q2630 464 2640 432Q2650 400 2658 340Q2666 281 2669 201Q2673 122 2674 1Q2668 -1 2651 -1Q2615 -1 2595 8Q2591 24 2591 61Q2591 80 2592 132Q2594 185 2594 214Q2594 262 2590 298Q2587 334 2577 369Q2568 404 2548 423Q2529 442 2500 442Q2467 442 2448 437Q2430 432 2422 425Q2415 418 2400 400ZM3092 496L3087 453Q3045 459 3015 459Q2946 459 2901 417Q2856 376 2839 319Q2823 263 2823 194Q2823 162 2827 137Q2831 112 2841 88Q2852 64 2874 50Q2897 37 2930 37Q2974 37 3042 54Q3063 62 3075 62Q3099 62 3104 6Q3016 -22 2941 -22Q2832 -22 2793 31Q2755 85 2755 205Q2755 275 2764 327Q2774 380 2798 425Q2822 471 2867 495Q2913 519 2979 519Q3053 519 3092 496ZM3558 97L3568 53Q3524 37 3437 17Q3351 -2 3309 -2Q3266 -2 3234 26Q3202 55 3186 99Q3170 144 3162 187Q3155 231 3155 273Q3155 523 3381 523Q3435 523 3476 488Q3517 454 3517 399Q3517 369 3500 346Q3484 323 3460 309Q3437 296 3400 285Q3364 274 3336 269Q3308 264 3269 258Q3230 252 3215 249Q3216 220 3218 198Q3221 176 3228 150Q3236 125 3248 108Q3261 92 3283 81Q3305 70 3335 70Q3371 70 3423 76Q3475 83 3515 90Q3556 97 3558 97ZM3219 311Q3355 350 3442 393Q3435 426 3423 441Q3411 456 3387 456Q3326 456 3276 414Q3227 372 3219 311ZM3881 396Q3885 340 3887 263Q3889 187 3890 109Q3892 31 3893 3Q3871 -3 3852 -3Q3837 -3 3824 2Q3821 41 3820 91Q3819 141 3819 179Q3819 218 3817 260Q3816 302 3812 332Q3808 362 3800 387Q3792 413 3777 427Q3763 441 3742 442Q3721 442 3708 433Q3695 424 3680 400L3680 4Q3665 -4 3644 -4Q3628 -4 3608 1Q3611 64 3612 249Q3613 434 3620 523L3665 513L3668 462Q3698 509 3744 509Q3812 509 3859 449Q3888 509 3953 509Q3979 509 3998 503Q4107 472 4107 224Q4107 188 4104 127Q4102 67 4102 46Q4102 18 4105 0Q4053 -14 4042 -14Q4032 -14 4028 -12Q4024 1 4024 36Q4024 58 4027 126Q4030 195 4030 234Q4030 442 3948 444Q3929 443 3915 432Q3901 422 3881 396ZM4591 97L4601 53Q4557 37 4470 17Q4384 -2 4342 -2Q4299 -2 4267 26Q4235 55 4219 99Q4203 144 4195 187Q4188 231 4188 273Q4188 523 4414 523Q4468 523 4509 488Q4550 454 4550 399Q4550 369 4533 346Q4517 323 4493 309Q4470 296 4433 285Q4397 274 4369 269Q4341 264 4302 258Q4263 252 4248 249Q4249 220 4251 198Q4254 176 4261 150Q4269 125 4281 108Q4294 92 4316 81Q4338 70 4368 70Q4404 70 4456 76Q4508 83 4548 90Q4589 97 4591 97ZM4252 311Q4388 350 4475 393Q4468 426 4456 441Q4444 456 4420 456Q4359 456 4309 414Q4260 372 4252 311ZM4709 400L4713 4Q4698 -4 4677 -4Q4661 -4 4641 1Q4644 64 4645 249Q4646 434 4653 523L4698 513L4701 457Q4754 513 4823 513Q4858 513 4879 508Q4900 503 4919 483Q4939 464 4949 432Q4959 400 4967 340Q4975 281 4978 201Q4982 122 4983 1Q4977 -1 4960 -1Q4924 -1 4904 8Q4900 24 4900 61Q4900 80 4901 132Q4903 185 4903 214Q4903 262 4899 298Q4896 334 4886 369Q4877 404 4857 423Q4838 442 4809 442Q4776 442 4757 437Q4739 432 4731 425Q4724 418 4709 400ZM5337 484L5348 439Q5321 437 5265 428Q5209 420 5181 418Q5186 383 5187 326Q5188 269 5189 227Q5191 186 5198 144Q5206 103 5229 81Q5253 59 5293 59Q5323 59 5368 73Q5387 36 5396 19Q5317 -9 5236 -9Q5206 -9 5184 9Q5162 27 5150 54Q5138 81 5130 122Q5123 164 5121 201Q5119 238 5119 286Q5119 312 5119 358Q5120 404 5120 421Q5110 420 5073 419Q5036 419 5030 419Q5023 486 5023 488Q5030 486 5046 486Q5055 486 5075 487Q5095 489 5105 489Q5109 489 5115 488Q5122 488 5124 488Q5128 598 5133 667L5178 656Q5179 632 5179 604Q5180 577 5180 543Q5181 510 5181 492Q5207 490 5259 488Q5311 486 5337 484Z" fill="#143d59" style=""></path></g></g></g></svg>