<svg version="1.1" xmlns="http://www.w3.org/2000/svg" viewBox="-308.2240000486374 -1764.9920532226563 8337.899903228283 2644.2240966796876"><desc>Created with Snap</desc><defs></defs><g><g transform="matrix(31.3183,0,0,31.3183,4921.7698,-1943.2251)"><g><path d="M43,54.5c-3.9-0.7-4.1,5.4-0.7,5c5.6-0.7,11.3-2.9,13.9-8.3c3.2-6.5,0.2-14,0.6-20.9c0.1-1.4-1.7-1.9-2.6-1.1   c-5.2,4.9-13.5,3.3-18.8,8.2c-4.2,4-5.6,13.1-0.4,16.7c-1.3,3.4-1.8,7.2-1.7,10.8c0.1,2.5,4,2.5,3.9,0c-0.3-4.8,0.7-9.5,3.2-13.6   c1.2-2,2.6-3.8,4.3-5.4c1.5-1.4,3.8-2.4,4.7-4.3c0.1-0.3,0-0.6-0.3-0.7c-4.2-1.6-9.6,5.2-11.6,8.2c-0.3,0.5-0.6,0.9-0.9,1.4   c-1-2.1-1.7-4.2-0.9-6.8c1.1-3.5,4.2-5.3,7.5-6.3c3.7-1.1,7.5-1.7,10.6-3.7c0.4,4.3,1.4,8.7,0.4,12.9C53.2,51.6,48.3,55.4,43,54.5z   " fill="#000000" style=""></path><path d="M3.5,16.7c-0.1-0.7-1.1-1-1.3-0.2C1,20.9,1,25.9,1,30.4c0,1.9,0.2,3.8,0.9,5.6c0.8,2.3,2.8,4,3.5,6.3s0,5-0.2,7.2   c-0.3,3-0.7,5.9-1.1,8.9c-0.7,4.9-1.5,9.9-1.4,14.9c0.1,3.1,1.3,5.8,4.6,6.6c3.2,0.8,6.7-1,7.6-4.2c1-3.4,0-8-0.3-11.5   c-0.4-4.8-1.3-9.5-1.5-14.3c-0.1-2.9,0-5.5,1.3-8.1c1.1-2.3,1.9-4.6,2.4-7c1.1-5.5,0.9-11.2,0.4-16.7c-0.3-3.1-4.7-2.5-4.2,0.6   c0.9,5.6,1.3,11.2-0.1,16.7c-0.6,2.3-1.7,4.3-2.6,6.5c-0.8,2-0.9,4.3-0.9,6.4c0,5,1,10,1.4,14.9C11,66,13,76.1,8.7,76.2   c-4.5,0.1-1.7-13-1.4-15.7C7.8,55.3,8.8,50,8.6,44.8c-0.2-5.1-4.6-8-5.1-12.9C2.9,26.8,4,21.8,3.5,16.7z" fill="#000000" style=""></path><path d="M7.4,32.9c0.2,1.8,2.7,1.8,2.8,0c0.1-2.7-0.1-5.6-0.2-8.3c-0.1-2.5,0.1-5.1-0.7-7.5c-0.2-0.8-1.4-0.8-1.6,0   c-0.6,2.4-0.4,5-0.4,7.5C7.3,27.4,7.2,30.2,7.4,32.9z" fill="#000000" style=""></path><path d="M80.4,79.2c2,1.5,4.8,1.5,6.8-0.1c1.9-1.5,1.9-3.5,2-5.7c0.2-3.3,0.2-6.7,0.2-10c0.1-9.5-0.1-18.9-0.2-28.4   c-0.1-6-0.6-12-0.8-18.1c0-0.5-0.2-0.8-0.5-1c-0.2-0.2-0.5-0.4-0.9-0.4c-7.1,0.2-10.1,7.2-11.1,13.3c-0.5,3.1-0.6,6.2-0.1,9.3   c0.6,3.6,2.3,6.3,3.8,9.5c3.5,7.6-1.1,16-1.2,23.9C78.3,74.2,78,77.4,80.4,79.2z M79.4,38.1c-1.1-6.1-0.1-16.3,6.2-19.3   c0.2,10.9,0,21.9,0.1,32.8c0.1,6.9,0.1,13.8-0.1,20.7c-0.1,1.8,0.3,3.3-1.1,4c-3.7,1.7-2.3-7.8-2-9.4c0.5-3.2,1.4-6.2,1.8-9.4   c0.4-3.5,0.3-7-1-10.3C82,44.1,80,41.5,79.4,38.1z" fill="#000000" style=""></path><path d="M63.9,28.2c-1.5-5.3-8.6-7.5-13.4-8.1c-6.1-0.8-12.6,0.3-18.2,3C21.6,28.2,15.2,40,16.4,51.6c1.2,11.9,9.2,22.3,20.8,25.6   C48.4,80.5,61.5,77,68.9,68c8.1-9.8,8.8-25.7,1.3-36c-1.8-2.4-5.8,0-4,2.4c5.8,7.7,6.3,18.8,1.8,27.1c-4.8,8.8-15.2,13.1-24.9,12   C33,72.5,24.7,65.4,22,55.7c-2.6-9.6,0.7-20.3,9-26.2c4.6-3.2,10.4-4.8,15.9-4.9c3,0,5.8,0.5,8.6,1.4c2.6,0.8,4.9,2.5,7.5,3   C63.6,29.1,64.1,28.7,63.9,28.2z" fill="#000000" style=""></path></g><desc>Created with Snap</desc><defs></defs></g><g><g transform="matrix(1.024,0,0,-1.024,0,0)"><path d="M232 -5Q195 -5 179 11Q163 28 163 74Q163 105 169 149Q175 193 190 282Q192 294 206 379Q220 465 231 559Q241 639 241 679Q241 724 208 724Q183 724 145 697Q108 671 65 613Q51 594 34 594Q20 594 9 607Q-1 621 -1 638Q-1 655 5 670Q11 686 27 708Q76 775 136 811Q196 848 262 848Q317 848 344 814Q372 780 372 715Q372 657 356 547Q406 695 483 771Q560 848 664 848Q746 848 787 801Q829 755 829 677Q829 633 816 570L755 284Q745 234 745 198Q745 156 764 135Q784 114 819 114Q852 114 883 136Q915 158 958 209Q970 223 985 223Q998 223 1005 211Q1013 199 1013 178Q1013 139 994 116Q942 53 891 24Q840 -5 784 -5Q699 -5 651 45Q603 96 603 181Q603 214 608 253Q614 292 627 352L667 535Q669 544 674 567Q679 590 682 610Q685 631 685 651Q685 683 667 702Q649 721 616 721Q556 721 496 657Q436 593 385 450Q334 308 305 86Q298 35 284 15Q271 -5 232 -5ZM1055 -5Q993 -5 956 40Q919 85 919 158Q919 238 956 309Q993 381 1054 424Q1116 468 1185 468Q1207 468 1214 459Q1222 451 1227 429Q1248 433 1271 433Q1320 433 1320 398Q1320 377 1305 298Q1282 183 1282 138Q1282 123 1289 114Q1297 105 1309 105Q1328 105 1355 129Q1382 154 1428 209Q1440 223 1455 223Q1468 223 1475 211Q1483 199 1483 178Q1483 138 1464 116Q1423 65 1377 30Q1331 -5 1288 -5Q1255 -5 1227 17Q1200 40 1186 79Q1134 -5 1055 -5ZM1091 96Q1113 96 1133 122Q1153 148 1162 191L1199 375Q1157 374 1121 343Q1086 313 1065 263Q1044 213 1044 157Q1044 126 1056 111Q1069 96 1091 96ZM1848 223Q1861 223 1868 211Q1876 199 1876 178Q1876 138 1857 116Q1814 63 1763 29Q1712 -5 1646 -5Q1442 -5 1442 282Q1442 326 1445 371L1406 371Q1376 371 1365 382Q1355 393 1355 417Q1355 473 1400 473L1457 473Q1474 583 1509 674Q1544 765 1593 819Q1643 873 1700 873Q1742 873 1766 836Q1790 799 1790 743Q1790 588 1660 473L1772 473Q1788 473 1795 466Q1802 459 1802 440Q1802 371 1689 371L1567 371Q1565 321 1565 293Q1565 189 1589 147Q1614 105 1667 105Q1710 105 1743 131Q1776 157 1821 209Q1833 223 1848 223ZM1673 777Q1658 777 1639 739Q1621 702 1604 635Q1588 569 1577 488Q1636 539 1665 602Q1695 666 1695 718Q1695 777 1673 777ZM1897 -5Q1852 -5 1823 36Q1795 78 1795 140Q1795 215 1805 277Q1815 340 1838 410Q1848 440 1866 453Q1884 466 1923 466Q1945 466 1953 459Q1962 452 1962 438Q1962 430 1951 384Q1941 347 1935 317Q1915 212 1915 177Q1915 156 1920 147Q1925 139 1936 139Q1951 139 1973 169Q1996 199 2021 260Q2047 321 2071 410Q2079 440 2095 453Q2112 466 2145 466Q2168 466 2177 460Q2186 455 2186 440Q2186 415 2161 303Q2133 175 2133 145Q2133 126 2141 115Q2149 105 2162 105Q2182 105 2209 129Q2237 154 2283 209Q2295 223 2310 223Q2323 223 2330 211Q2338 199 2338 178Q2338 138 2319 116Q2276 63 2226 29Q2177 -5 2114 -5Q2066 -5 2043 32Q2021 69 2021 136Q2004 68 1970 31Q1936 -5 1897 -5ZM2328 -5Q2290 -5 2274 35Q2259 75 2259 163Q2259 293 2296 410Q2305 439 2325 452Q2346 466 2383 466Q2403 466 2411 461Q2419 456 2419 442Q2419 426 2404 370Q2394 330 2388 300Q2382 270 2378 226Q2411 312 2452 366Q2493 420 2532 443Q2572 466 2605 466Q2670 466 2670 401Q2670 388 2661 338Q2653 298 2653 288Q2653 253 2678 253Q2706 253 2750 297Q2763 310 2777 310Q2790 310 2797 298Q2805 287 2805 268Q2805 231 2785 210Q2757 181 2719 160Q2682 140 2640 140Q2587 140 2559 167Q2532 194 2532 240Q2532 255 2535 270Q2537 290 2537 297Q2537 313 2526 313Q2511 313 2486 279Q2462 246 2438 191Q2414 136 2399 75Q2388 28 2373 11Q2359 -5 2328 -5ZM3158 223Q3171 223 3178 211Q3186 199 3186 178Q3186 138 3167 116Q3130 71 3062 33Q2995 -5 2918 -5Q2813 -5 2755 52Q2697 109 2697 208Q2697 277 2726 336Q2755 396 2806 431Q2858 466 2923 466Q2981 466 3016 431Q3051 397 3051 338Q3051 269 3001 219Q2952 170 2834 141Q2859 95 2929 95Q2974 95 3031 126Q3089 158 3131 209Q3143 223 3158 223ZM2906 368Q2869 368 2843 325Q2818 282 2818 221L2818 219Q2877 233 2911 261Q2945 289 2945 326Q2945 345 2934 356Q2924 368 2906 368ZM3944 829Q3972 825 3982 812Q3993 799 3993 778Q3993 709 3919 714L3884 717Q3825 722 3766 725Q3708 728 3644 728L3599 728Q3587 580 3574 458L3746 461Q3783 461 3795 448Q3808 435 3808 413Q3808 379 3788 359Q3768 340 3731 340L3560 340L3554 297Q3533 132 3464 62Q3396 -8 3276 -8Q3208 -8 3151 21Q3094 51 3067 93Q3056 110 3056 134Q3056 158 3067 176Q3079 194 3096 194Q3108 194 3119 186Q3131 178 3149 155Q3197 92 3268 92Q3325 92 3363 138Q3402 185 3413 285L3419 340L3371 340Q3348 340 3331 353Q3315 366 3315 390Q3315 421 3331 437Q3347 454 3378 454Q3406 454 3433 455Q3445 565 3459 722Q3351 712 3307 687Q3263 662 3263 613Q3263 579 3283 548Q3289 539 3289 530Q3289 512 3269 498Q3249 485 3224 485Q3197 485 3178 501Q3166 511 3155 542Q3144 573 3144 611Q3144 735 3271 791Q3399 847 3644 847Q3814 847 3944 829ZM3948 532Q3906 532 3885 551Q3864 571 3864 606Q3864 641 3891 664Q3919 688 3960 688Q3997 688 4020 670Q4043 652 4043 619Q4043 579 4017 555Q3991 532 3948 532ZM3940 -5Q3875 -5 3845 41Q3816 87 3816 163Q3816 208 3827 278Q3839 349 3857 410Q3866 442 3881 454Q3896 466 3929 466Q3980 466 3980 432Q3980 407 3961 316Q3937 206 3937 167Q3937 137 3945 121Q3953 105 3972 105Q3990 105 4017 130Q4044 155 4089 209Q4101 223 4116 223Q4129 223 4136 211Q4144 199 4144 178Q4144 138 4125 116Q4026 -5 3940 -5ZM4509 223Q4522 223 4529 211Q4537 199 4537 178Q4537 138 4518 116Q4475 63 4424 29Q4373 -5 4307 -5Q4103 -5 4103 282Q4103 326 4106 371L4067 371Q4037 371 4026 382Q4016 393 4016 417Q4016 473 4061 473L4118 473Q4135 583 4170 674Q4205 765 4254 819Q4304 873 4361 873Q4403 873 4427 836Q4451 799 4451 743Q4451 588 4321 473L4433 473Q4449 473 4456 466Q4463 459 4463 440Q4463 371 4350 371L4228 371Q4226 321 4226 293Q4226 189 4250 147Q4275 105 4328 105Q4371 105 4404 131Q4437 157 4482 209Q4494 223 4509 223ZM4334 777Q4319 777 4300 739Q4282 702 4265 635Q4249 569 4238 488Q4297 539 4326 602Q4356 666 4356 718Q4356 777 4334 777Z" fill="#000000" style=""></path></g></g></g></svg>