<svg version="1.1" xmlns="http://www.w3.org/2000/svg" viewBox="-269.2 -1430.325 6924.1483595315185 2209.65"><desc>Created with Snap</desc><defs></defs><g><g transform="matrix(20.028,0,0,20.028,4555.2261,-1226.7667)"><path fill="#143d59" d="M81.382,58.81V39.686c0-0.521-0.236-1.012-0.639-1.34L60.717,22.104c-0.457-0.369-1.066-0.482-1.624-0.3  l-2.764,0.904c-0.869-2.925-2.991-5.312-5.741-6.543c-0.319-4.343-2.697-8.467-6.732-10.826c-0.57-0.334-1.302-0.142-1.635,0.428  c-0.333,0.57-0.141,1.302,0.429,1.635c3.042,1.779,4.943,4.772,5.449,8.01c-0.571-0.097-1.155-0.159-1.754-0.159  c-5.746,0-10.422,4.676-10.422,10.422c0,1.229,0.226,2.406,0.619,3.501L9.409,38.046C8.7,38.277,8.22,38.939,8.22,39.686v19.336  c-4.868,2.647-7.722,5.845-7.722,9.293c0,9.117,19.924,16.511,44.501,16.511c24.578,0,44.502-7.394,44.502-16.511  C89.502,64.775,86.493,61.497,81.382,58.81z M77.932,41.538v12.772c-2.263,1.539-4.956,2.377-7.703,2.377  c-4.781,0-9.141-2.445-11.661-6.541c-0.217-0.353-0.604-0.568-1.019-0.568s-0.799,0.216-1.018,0.568  c-2.519,4.096-6.877,6.541-11.66,6.541c-4.781,0-9.14-2.445-11.659-6.539c-0.217-0.354-0.603-0.57-1.018-0.57  c-0.415,0-0.801,0.216-1.019,0.57c-2.519,4.094-6.876,6.539-11.659,6.539c-2.811,0-5.555-0.873-7.848-2.478V41.538H77.932z   M11.669,57.018c2.386,1.335,5.088,2.059,7.848,2.059c5.02,0,9.641-2.29,12.677-6.205c3.037,3.915,7.658,6.205,12.677,6.205  c5.02,0,9.642-2.29,12.677-6.205c3.038,3.915,7.659,6.205,12.68,6.205c2.7,0,5.353-0.694,7.703-1.977v10.902H11.669V57.018z   M46.344,18.702c0.602,0,1.184,0.085,1.74,0.229c-0.213,1.342-0.661,2.667-1.388,3.91c-0.335,0.569-0.143,1.302,0.428,1.634  c0.189,0.111,0.397,0.164,0.603,0.164c0.409,0,0.811-0.212,1.032-0.592c0.763-1.302,1.279-2.681,1.572-4.083  c1.803,1.262,2.986,3.349,2.986,5.711c0,3.844-3.129,6.972-6.974,6.972c-3.844,0-6.972-3.127-6.972-6.972  C39.372,21.829,42.5,18.702,46.344,18.702z M46.344,36.095c5.568,0,10.118-4.392,10.396-9.893l2.532-0.828l16.983,13.774H17.137  l21.126-6.906C40.175,34.59,43.086,36.095,46.344,36.095z" style=""></path><desc>Created with Snap</desc><defs></defs></g><g><g transform="matrix(1,0,0,-1,0,0)"><path d="M105 614Q179 640 301 640Q524 640 606 530Q638 488 638 423Q639 414 639 405Q639 305 522 202Q415 105 258 46Q154 6 86 6Q58 6 38 14L38 638L52 638Q75 638 89 630Q103 623 105 614ZM571 415Q562 504 472 547Q405 579 304 579L286 578Q191 576 122 548L122 71Q192 71 297 122Q479 212 547 331Q571 373 571 415ZM895 70Q983 70 1160 150Q1171 150 1178 142Q1185 135 1185 125Q1145 57 1032 19Q919 -19 821 6Q710 35 686 131Q684 150 684 182Q684 214 700 266Q717 319 757 366Q797 413 851 440Q905 467 966 467Q1024 467 1096 427Q1130 408 1150 384Q1170 360 1170 335Q1170 328 1169 321Q1167 260 1110 244Q1085 237 1052 237L908 243Q836 243 798 212Q776 195 767 161Q792 70 895 70ZM1073 379Q1051 395 1027 402Q1003 409 987 409Q971 409 935 398Q899 388 871 375Q802 343 802 308Q882 301 922 301Q1033 301 1072 320Q1096 330 1096 345Q1096 363 1073 379ZM1587 258Q1697 258 1697 202Q1697 160 1636 104Q1545 21 1391 -29Q1384 -29 1375 -15Q1367 -1 1362 6Q1358 14 1356 16Q1471 54 1545 108Q1595 144 1595 167Q1595 190 1536 190Q1477 190 1363 162Q1311 164 1273 199Q1240 230 1240 261Q1240 293 1258 319Q1276 346 1306 369Q1336 392 1376 411Q1474 458 1579 458Q1610 458 1639 452Q1663 452 1667 431Q1671 410 1671 362Q1612 389 1538 389Q1446 389 1386 352Q1324 316 1322 258Q1322 230 1363 230L1436 238Q1530 258 1587 258ZM2101 258Q2211 258 2211 202Q2211 160 2150 104Q2059 21 1905 -29Q1898 -29 1889 -15Q1881 -1 1876 6Q1872 14 1870 16Q1985 54 2059 108Q2109 144 2109 167Q2109 190 2050 190Q1991 190 1877 162Q1825 164 1787 199Q1754 230 1754 261Q1754 293 1772 319Q1790 346 1820 369Q1850 392 1890 411Q1988 458 2093 458Q2124 458 2153 452Q2177 452 2181 431Q2185 410 2185 362Q2126 389 2052 389Q1960 389 1900 352Q1838 316 1836 258Q1836 230 1877 230L1950 238Q2044 258 2101 258ZM2477 70Q2565 70 2742 150Q2753 150 2760 142Q2767 135 2767 125Q2727 57 2614 19Q2501 -19 2403 6Q2292 35 2268 131Q2266 150 2266 182Q2266 214 2282 266Q2299 319 2339 366Q2379 413 2433 440Q2487 467 2548 467Q2606 467 2678 427Q2712 408 2732 384Q2752 360 2752 335Q2752 328 2751 321Q2749 260 2692 244Q2667 237 2634 237L2490 243Q2418 243 2380 212Q2358 195 2349 161Q2374 70 2477 70ZM2655 379Q2633 395 2609 402Q2585 409 2569 409Q2553 409 2517 398Q2481 388 2453 375Q2384 343 2384 308Q2464 301 2504 301Q2615 301 2654 320Q2678 330 2678 345Q2678 363 2655 379ZM3318 365Q3276 395 3210 395Q3148 395 3095 372Q2995 330 2958 264Q2942 234 2942 200Q2942 194 2942 166Q2942 139 2952 92Q2962 46 2962 -2Q2941 -3 2928 -7Q2915 -11 2906 -11Q2897 -11 2890 -3Q2884 5 2876 28Q2875 34 2872 62Q2869 90 2864 130Q2860 170 2854 217Q2849 265 2844 311Q2833 411 2827 458Q2827 482 2862 482Q2883 482 2895 464Q2907 447 2914 424Q2921 402 2923 380Q2926 358 2928 349Q3060 467 3256 467Q3278 467 3302 466Q3308 467 3317 467Q3326 467 3335 455Q3346 441 3346 421Q3346 371 3318 365ZM3543 96L3545 256Q3545 294 3538 321L3383 321L3381 390L3531 390L3531 648Q3534 657 3543 666Q3557 680 3566 680Q3576 680 3583 678Q3590 676 3598 664Q3614 598 3614 465Q3614 432 3617 400Q3649 404 3681 404Q3681 404 3733 404Q3752 404 3768 406L3765 334L3619 338L3624 -7Q3606 -15 3593 -15Q3543 -15 3543 96ZM4148 258Q4258 258 4258 202Q4258 160 4197 104Q4106 21 3952 -29Q3945 -29 3936 -15Q3928 -1 3923 6Q3919 14 3917 16Q4032 54 4106 108Q4156 144 4156 167Q4156 190 4097 190Q4038 190 3924 162Q3872 164 3834 199Q3801 230 3801 261Q3801 293 3819 319Q3837 346 3867 369Q3897 392 3937 411Q4035 458 4140 458Q4171 458 4200 452Q4224 452 4228 431Q4232 410 4232 362Q4173 389 4099 389Q4007 389 3947 352Q3885 316 3883 258Q3883 230 3924 230L3997 238Q4091 258 4148 258Z" fill="#143d59" style=""></path></g></g></g></svg>