<svg version="1.1" xmlns="http://www.w3.org/2000/svg" viewBox="-266.2 -1500.2 5192.949748298885 2288.4"><desc>Created with Snap</desc><defs></defs><g><g transform="matrix(20.9932,0,0,20.9932,2562.2135,-1405.6614)"><title>Artboard 3</title><path d="M12.23,89.87H62.87A10.28,10.28,0,0,0,73.15,79.59V72.31H84.33A13.73,13.73,0,0,0,98,58.6V41.4A13.73,13.73,0,0,0,84.33,27.68H73.15V20.41A10.28,10.28,0,0,0,62.87,10.13H12.23A10.28,10.28,0,0,0,2,20.41V79.59A10.28,10.28,0,0,0,12.23,89.87ZM73.15,39.71H84.33A1.7,1.7,0,0,1,86,41.4V58.6a1.7,1.7,0,0,1-1.7,1.7H73.15ZM25.39,52,37.07,29.68a1.81,1.81,0,0,1,3.41,1.11L38.3,44l9.33.43.28,0a2.46,2.46,0,0,1,1.77,1.29,2.42,2.42,0,0,1,0,2.19L38,70.32a1.8,1.8,0,0,1-3.39-1.11L36.81,56l-9.33-.43-.28,0a2.46,2.46,0,0,1-1.77-1.28A2.43,2.43,0,0,1,25.39,52Z" fill="#143d59" style=""></path><desc>Created with Snap</desc><defs></defs></g><g><g transform="matrix(1,0,0,-1,0,0)"><path d="M41 6L44 728Q266 726 387 614Q508 503 508 288Q508 219 472 162Q436 105 379 71Q323 37 257 18Q192 0 128 0Q88 0 41 6ZM116 67L133 67Q190 67 243 80Q296 94 341 121Q386 148 413 195Q440 243 440 305Q440 389 389 475Q339 562 267 615Q196 669 135 669Q122 669 110 666Q110 606 116 67ZM919 381L875 384Q854 440 804 440Q782 440 757 430Q733 420 717 409Q701 399 675 379Q675 365 674 288Q674 211 675 117Q677 23 679 16Q670 -14 644 -14Q626 -14 609 0Q593 15 589 36Q608 357 623 521L668 511L671 444Q741 502 791 502Q846 502 883 477Q921 452 921 404Q921 389 919 381ZM983 514L1029 504Q1037 422 1043 246Q1049 71 1051 29Q1042 -2 1016 -2Q998 -2 981 12Q965 27 961 48Q963 89 969 261Q975 434 983 514ZM997 693Q1024 693 1042 669Q1060 646 1060 616Q1060 594 1049 580Q1039 567 1021 567Q993 567 977 590Q961 613 961 644Q961 666 970 679Q980 693 997 693ZM1210 400L1214 4Q1199 -4 1178 -4Q1162 -4 1142 1Q1145 64 1146 249Q1147 434 1154 523L1199 513L1202 457Q1255 513 1324 513Q1359 513 1380 508Q1401 503 1420 483Q1440 464 1450 432Q1460 400 1468 340Q1476 281 1479 201Q1483 122 1484 1Q1478 -1 1461 -1Q1425 -1 1405 8Q1401 24 1401 61Q1401 80 1402 132Q1404 185 1404 214Q1404 262 1400 298Q1397 334 1387 369Q1378 404 1358 423Q1339 442 1310 442Q1277 442 1258 437Q1240 432 1232 425Q1225 418 1210 400ZM1930 0L1838 2Q1801 39 1736 121Q1672 204 1655 223L1655 17Q1646 -13 1620 -13Q1602 -13 1585 1Q1569 16 1565 37Q1568 140 1568 379Q1568 618 1572 722L1633 709Q1634 669 1636 545Q1639 421 1641 360L1884 538L1901 493Q1806 424 1678 298Q1705 269 1797 156Q1890 44 1930 0ZM2278 482L2268 442Q2171 482 2117 482Q2069 482 2049 467Q2030 453 2030 406Q2030 368 2057 343Q2085 318 2124 303Q2163 289 2202 272Q2242 256 2269 224Q2297 192 2297 145Q2297 81 2250 33Q2203 -15 2128 -16Q2073 -16 2025 7Q1977 30 1949 65L1978 95Q1990 90 2013 79Q2037 68 2047 64Q2057 61 2076 57Q2096 53 2118 53Q2165 53 2195 74Q2225 95 2225 133Q2225 158 2211 175Q2197 193 2174 204Q2151 215 2123 225Q2096 235 2068 247Q2041 260 2018 277Q1995 295 1981 325Q1967 355 1967 396Q1967 456 1999 496Q2032 537 2091 537Q2114 537 2143 530Q2172 523 2189 517Q2206 511 2239 497Q2273 484 2278 482Z" fill="#143d59" style=""></path></g></g></g></svg>