<svg version="1.1" xmlns="http://www.w3.org/2000/svg" viewBox="-2457.7079654743893 -1481.95 4883.907965474389 2265.9"><desc>Created with Snap</desc><defs></defs><g><g transform="matrix(9.4321,0,0,9.4321,-2172.0603,-1292.2076)"><metadata><!--?xpacket begin="&#65279;" id="W5M0MpCehiHzreSzNTczkc9d"?--><x:xmpmeta xmlns:x="adobe:ns:meta/" x:xmptk="Adobe XMP Core 5.3-c011 66.145661, 2012/02/06-14:56:27        "></x:xmpmeta><!--?xpacket end="w"?--></metadata><g><g><g><path d="M77.847,78.192c-1.646-1.802-3.99-2.857-6.431-2.895c-4.908-0.063-8.968,3.85-9.052,8.754     c-0.027,1.582,1.233,2.884,2.814,2.911c0.017,0,0.033,0,0.049,0c1.559,0,2.835-1.249,2.862-2.814     c0.029-1.752,1.469-3.157,3.237-3.126c0.884,0.014,1.698,0.38,2.294,1.032c1.066,1.167,2.877,1.25,4.045,0.183     C78.831,81.17,78.914,79.358,77.847,78.192z" fill="#00203f" style=""></path></g></g><g><g><path d="M93.078,87.521c-0.877-2.063-2.586-3.691-4.688-4.466c-4.228-1.56-8.939,0.607-10.505,4.83     c-0.55,1.482,0.206,3.13,1.688,3.68c0.329,0.122,0.665,0.18,0.995,0.18c1.164,0,2.256-0.714,2.685-1.867     c0.471-1.27,1.887-1.918,3.155-1.45c0.637,0.235,1.135,0.709,1.401,1.335c0.618,1.454,2.299,2.134,3.753,1.515     C93.019,90.658,93.696,88.977,93.078,87.521z" fill="#00203f" style=""></path></g></g><g><g><path d="M111.529,62.168c-1.12-1.118-2.932-1.115-4.049,0.003l-2.698,2.704c-1.118,1.12-1.116,2.932,0.004,4.05     c0.558,0.557,1.29,0.836,2.021,0.836c0.735,0,1.468-0.28,2.027-0.841l2.698-2.704C112.649,65.098,112.647,63.284,111.529,62.168z     " fill="#00203f" style=""></path></g></g><g><g><path d="M93.719,99.125h-3.817c-1.58,0-2.863,1.281-2.863,2.862c0,1.582,1.283,2.862,2.863,2.862h3.817     c1.58,0,2.863-1.28,2.863-2.862C96.582,100.406,95.299,99.125,93.719,99.125z" fill="#00203f" style=""></path></g></g><g><g><path d="M122.973,99.125h-3.815c-1.582,0-2.863,1.281-2.863,2.862c0,1.582,1.283,2.862,2.863,2.862h3.815     c1.582,0,2.862-1.28,2.862-2.862C125.835,100.406,124.555,99.125,122.973,99.125z" fill="#00203f" style=""></path></g></g><g><g><path d="M197.623,150.743l-0.746-4.023c-0.476-2.572-2.72-4.438-5.339-4.438c-0.327,0-0.66,0.029-0.985,0.09l-15.178,2.788     l6.873-4.595c1.802-1.204,2.712-3.358,2.319-5.493c-0.109-0.586-0.313-1.147-0.609-1.673l-2.08-3.683     c-0.712-1.266-1.928-2.206-3.33-2.578c-0.688-0.184-1.404-0.225-2.107-0.134c0.765-4.224,1.161-8.537,1.161-12.929     c0-1.948-1.172-3.626-2.847-4.369c2.188-5.202,2.336-11.158,0.176-16.611c-0.176-0.444-0.438-0.84-0.772-1.177     c-0.334-0.335-0.726-0.593-1.17-0.771c-2.59-1.032-5.313-1.555-8.092-1.555c-0.355,0-0.711,0.009-1.063,0.025     c-0.395-7.989-7.008-14.367-15.081-14.367c-1.063,0-2.102,0.112-3.102,0.324c0.695-4.161,0.287-8.514-1.334-12.6     c-0.176-0.449-0.437-0.853-0.791-1.213c-0.342-0.342-0.743-0.606-1.188-0.783c-2.792-1.112-5.725-1.674-8.719-1.674     c-4.51,0-8.824,1.268-12.55,3.625c-1.36-3.941-3.604-7.643-6.738-10.785c-0.919-0.921-2.14-1.427-3.439-1.427     s-2.521,0.506-3.441,1.428L93.589,66.038c-2.565-2.288-5.939-3.656-9.603-3.656c-0.832,0-1.671,0.072-2.495,0.216     c-2.986,0.521-5.734,1.981-7.841,4.123c-2.701-1.304-5.795-1.748-8.768-1.23c-0.655,0.113-1.291,0.273-1.906,0.469V55.254     c0-7.373-5.925-13.38-13.254-13.508v-6.071c2.244-0.388,3.957-2.344,3.957-4.696V17.223c0-2.631-2.142-4.77-4.771-4.77H25.626     c-2.631,0-4.771,2.139-4.771,4.77v13.756c0,2.353,1.713,4.309,3.957,4.696v6.071c-7.331,0.127-13.254,6.135-13.254,13.507v83.552     c-5.715,5.163-9.273,12.364-9.273,20.33c0,15.666,13.75,28.412,30.652,28.412l114.581-0.033c3.913-0.002,7.59-1.72,10.093-4.716     c2.435-2.915,3.471-6.701,2.873-10.436l22.886,4.112c0.317,0.056,0.642,0.086,0.963,0.086c1.142,0,2.235-0.352,3.16-1.013     c1.191-0.85,1.997-2.167,2.213-3.61l0.619-4.159c0.09-0.597,0.079-1.196-0.03-1.785c-0.394-2.126-2.014-3.813-4.126-4.298     l-8.065-1.851l15.161-2.785c1.429-0.263,2.67-1.065,3.493-2.259C197.579,153.607,197.886,152.166,197.623,150.743z      M164.896,95.318c1.723,0,3.417,0.272,5.045,0.811c1.457,4.433,0.911,9.215-1.367,13.164h-7.713l2.463-2.466     c1.116-1.12,1.113-2.933-0.006-4.05c-1.121-1.116-2.932-1.114-4.048,0.005l-1.303,1.305c-0.61-2.009-1.678-3.809-3.077-5.284     C157.731,96.547,161.221,95.318,164.896,95.318z M148.752,80.975c5.17,0,9.375,4.218,9.375,9.404     c0,0.097-0.004,0.191-0.006,0.287c-3.02,0.981-5.8,2.62-8.172,4.847c-0.378-0.143-0.761-0.276-1.153-0.385     c-0.838-4.523-3.888-8.15-7.915-9.844C142.553,82.695,145.454,80.975,148.752,80.975z M133.619,65.029     c1.943,0,3.856,0.314,5.695,0.937c1.48,4.4,1.178,9.126-0.708,13.22c-1.549,1.412-2.807,3.141-3.666,5.084     c-0.512,0.03-1.023,0.087-1.526,0.173c-2.245,0.392-4.337,1.365-6.087,2.777c-0.597-1.093-1.328-2.1-2.166-3.006l6.565-6.58     c1.117-1.12,1.114-2.932-0.004-4.049c-1.12-1.116-2.934-1.114-4.05,0.005l-7.175,7.19c-1.365-0.645-2.841-1.094-4.393-1.303     c0.67-3.416,2.328-6.636,4.894-9.207C124.371,66.891,128.854,65.029,133.619,65.029z M111.684,109.293H109.2     c-0.418-1.064-1.45-1.818-2.662-1.818s-2.244,0.756-2.662,1.818h-2.92c0.678-1.104,0.54-2.567-0.416-3.522     c-1.118-1.116-2.932-1.114-4.048,0.006l-2.699,2.703c-0.242,0.243-0.429,0.52-0.567,0.813H87.4     c-2.182-3.348-3.514-7.301-3.671-11.554h45.417c-0.159,4.253-1.491,8.206-3.673,11.554h-6.063     c-0.137-0.294-0.325-0.571-0.565-0.813l-2.698-2.704c-1.116-1.119-2.93-1.122-4.048-0.005     C111.142,106.726,111.004,108.188,111.684,109.293z M105.024,92.015c1.079-3.999,4.728-6.95,9.051-6.95s7.972,2.951,9.05,6.95     H105.024z M110.879,56.814c2.723,2.942,4.524,6.437,5.405,10.109c-1.461,1.587-2.675,3.343-3.634,5.211     c-0.432-0.266-0.942-0.424-1.489-0.424h-3.816c-1.58,0-2.861,1.283-2.861,2.864s1.281,2.862,2.861,2.862h3.348     c-0.188,0.791-0.335,1.591-0.439,2.397c-1.138,0.298-2.225,0.723-3.239,1.266c-1.909-3.293-5.066-5.748-8.812-6.731     c-0.002-0.009-0.002-0.017-0.005-0.024c-0.225-1.296-0.615-2.525-1.15-3.667L110.879,56.814z M59.129,82.645     c-0.167-0.469-0.295-0.951-0.378-1.435c-0.822-4.733,2.37-9.255,7.111-10.081c0.5-0.087,1.008-0.131,1.51-0.131     c1.886,0,3.688,0.602,5.211,1.74c0.631,0.47,1.428,0.661,2.203,0.527c0.775-0.135,1.461-0.583,1.897-1.238     c1.344-2.028,3.4-3.373,5.79-3.79c0.501-0.086,1.01-0.131,1.513-0.131c4.241,0,7.845,3.035,8.571,7.216     c0.081,0.479,0.125,0.979,0.125,1.484c0.003,1.482,1.135,2.716,2.613,2.847c3.2,0.28,5.925,2.295,7.187,5.133     c-1.69,2.029-2.862,4.507-3.308,7.228H82.85c-2.03,0-3.771,1.253-4.498,3.025c-3.592-2.446-7.825-3.764-12.262-3.764     c-2.779,0-5.501,0.523-8.094,1.556c-0.439,0.176-0.833,0.435-1.168,0.77c-0.339,0.34-0.6,0.738-0.771,1.175     c-0.658,1.661-1.098,3.369-1.336,5.088c-1.024-1.167-1.748-2.619-2.03-4.249c-0.674-3.886,1.36-7.752,4.943-9.405     C58.98,85.588,59.629,84.042,59.129,82.645z M67.664,108.51l0.781,0.783h-6.876c-1.544-3.581-1.778-7.657-0.524-11.48     c1.632-0.539,3.324-0.812,5.046-0.812c4.314,0,8.373,1.688,11.426,4.747c0.407,0.406,0.784,0.834,1.14,1.275     c0.486,2.195,1.23,4.295,2.19,6.269h-4.314l-4.815-4.827c-1.117-1.118-2.93-1.121-4.048-0.004     C66.548,105.578,66.546,107.392,67.664,108.51z M55.472,109.293H45.267c0.455-2.773,2.123-5.137,4.438-6.531     c1.371,1.837,3.159,3.321,5.22,4.327C55.072,107.832,55.251,108.568,55.472,109.293z M26.582,18.178h21.372v11.847H26.582V18.178     z M43.997,35.751v5.99H30.539v-5.99H43.997z M17.284,66.863h18.59c1.58,0,2.863-1.281,2.863-2.863     c0-1.58-1.283-2.863-2.863-2.863h-18.59v-5.884c0-4.294,3.482-7.787,7.763-7.787h24.439c4.282,0,7.764,3.493,7.764,7.787v5.884     h-5.346c-1.581,0-2.862,1.283-2.862,2.863c0,1.583,1.281,2.863,2.862,2.863h5.346v2.542c-3.28,3.216-4.984,7.931-4.143,12.782     c0.002,0.009,0.003,0.019,0.005,0.029c-4.594,3.151-7.04,8.753-6.065,14.376c0.057,0.328,0.128,0.652,0.206,0.971     c-1.431,0.79-2.715,1.807-3.816,2.999H17.284V66.863z M17.284,106.286L17.284,106.286h22.831c-0.305,0.966-0.52,1.97-0.624,3.007     h-0.482c-2.634,0-4.779,2.145-4.779,4.783c0,4.544,0.424,9.007,1.242,13.373c-0.823-0.066-1.667-0.101-2.525-0.101     c-3.462,0-6.76,0.548-9.286,1.545c-3.865,1.527-4.933,3.694-5.167,5.194c-0.409,0.203-0.811,0.419-1.209,0.639V106.286z      M53.534,141.453c1.031,0.825,1.661,1.528,2.027,2.033c-0.034,0-0.071,0-0.108,0c-1.62,0-4.531-0.653-7.842-2.484     c-1.232-0.684-2.368-1.454-3.285-2.231c-1.066-0.905-2.633-0.905-3.7,0c-0.916,0.777-2.051,1.548-3.282,2.229     c-3.311,1.833-6.223,2.486-7.842,2.486c-0.039,0-0.072,0-0.108,0c0.365-0.505,0.995-1.208,2.026-2.033     c0.902-0.72,1.281-1.913,0.964-3.022c-0.319-1.11-1.272-1.922-2.419-2.055c-2.793-0.328-4.561-1.039-5.387-1.557     c1.036-0.646,3.656-1.746,8.371-1.746c3.905,0,6.758,0.82,8.126,1.59c0.872,0.489,1.933,0.489,2.803,0     c1.37-0.77,4.224-1.59,8.127-1.59c4.717,0,7.336,1.103,8.372,1.747c-0.826,0.517-2.594,1.228-5.388,1.556     c-1.146,0.136-2.102,0.944-2.417,2.055C52.252,139.541,52.632,140.733,53.534,141.453z M47.807,176.297l0.099,0.53     c0.34,1.839,1.059,3.527,2.062,4.995h-17.03c-13.745,0-24.927-10.179-24.927-22.688c0-8.551,5.224-16.007,12.917-19.874     c0.884,0.658,1.986,1.228,3.292,1.688c-0.519,0.884-0.878,1.835-0.964,2.828c-0.113,1.319,0.291,2.574,1.139,3.53     c1.119,1.264,2.837,1.904,5.108,1.904c3.023,0,6.993-1.196,10.615-3.202c0.834-0.462,1.623-0.948,2.361-1.459     c0.737,0.511,1.526,0.997,2.36,1.459c3.623,2.006,7.591,3.202,10.615,3.202l0,0c2.27,0,3.988-0.641,5.108-1.904     c0.847-0.956,1.252-2.211,1.139-3.53c-0.085-0.993-0.446-1.944-0.965-2.828c1.308-0.461,2.409-1.03,3.292-1.688     c6.101,3.066,10.648,8.393,12.27,14.728l-20.247,7.693C50.122,163.934,46.655,170.079,47.807,176.297z M153.214,179.128     c-1.41,1.69-3.488,2.659-5.698,2.66h-3.005l-1.878-10.134c-0.287-1.556-1.779-2.583-3.335-2.294     c-1.556,0.288-2.583,1.78-2.294,3.335l1.685,9.096l-9.849,0.004l-1.271-6.854c-0.287-1.553-1.782-2.58-3.337-2.294     c-1.554,0.288-2.581,1.782-2.293,3.337l1.077,5.814l-22.912,0.009l-1.726-9.309c-0.288-1.556-1.78-2.583-3.336-2.295     c-1.555,0.289-2.582,1.783-2.293,3.338l1.532,8.268l-33.453,0.014h-0.002c-3.578,0-6.643-2.539-7.292-6.039l-0.098-0.53     c-0.647-3.494,1.305-6.95,4.645-8.22l11.251-4.275l0.837,4.525c0.256,1.379,1.458,2.342,2.812,2.342     c0.173,0,0.349-0.017,0.524-0.049c1.556-0.288,2.582-1.781,2.294-3.337l-1.028-5.547l16.701-6.345     c1.479-0.562,2.222-2.215,1.66-3.692c-0.562-1.479-2.218-2.222-3.694-1.66l-7.771,2.952c-2.181-7.719-7.782-14.167-15.209-17.859     c-0.232-1.5-1.301-3.667-5.166-5.194c-2.527-0.997-5.825-1.546-9.288-1.546c-2.382,0-4.657,0.262-6.666,0.741v-1.729     c0-1.58-1.282-2.863-2.863-2.863c-0.668,0-1.282,0.231-1.769,0.615c-0.452-2.985-0.705-6.019-0.746-9.095h93.245     c1.58,0,2.862-1.283,2.862-2.862c0-1.581-1.282-2.863-2.862-2.863h-1.172c1.822-3.754,2.853-7.965,2.853-12.412     c0-2.526-1.933-4.606-4.395-4.843c1.07-1.011,2.41-1.692,3.9-1.953c0.437-0.075,0.882-0.114,1.318-0.114     c3.697,0,6.837,2.645,7.469,6.287c0.072,0.421,0.109,0.856,0.109,1.294c0.003,1.481,1.137,2.719,2.613,2.848     c3.42,0.3,6.22,2.874,6.806,6.256c0.157,0.899,0.138,1.788-0.019,2.638h-3.071c-1.582,0-2.862,1.282-2.862,2.863     c0,1.579,1.28,2.862,2.862,2.862h22.25c-0.07,5.252-0.749,10.381-2.01,15.357l-15.515,9.159     c-0.948-3.303-3.154-6.104-6.193-7.805c-3.407-1.908-7.458-2.205-11.11-0.817l-31.952,12.137     c-1.479,0.563-2.222,2.216-1.661,3.693c0.564,1.479,2.219,2.222,3.694,1.66l4.209-1.599l1.308,7.056     c0.254,1.38,1.458,2.343,2.811,2.343c0.173,0,0.349-0.017,0.525-0.049c1.554-0.288,2.58-1.781,2.295-3.337l-1.499-8.079     l22.303-8.473c2.067-0.784,4.357-0.616,6.283,0.462c1.924,1.077,3.256,2.932,3.654,5.088l5.792,31.268     C155.203,175.238,154.625,177.441,153.214,179.128z M163.429,156.721c-1.336,0.244-2.315,1.395-2.344,2.752     c-0.03,1.358,0.896,2.549,2.221,2.853l21.314,4.889l-0.532,3.573l-24.709-4.441l-3.863-20.854l21.521-12.704l1.793,3.175     l-18.151,12.134c-1.131,0.754-1.573,2.199-1.062,3.457c0.51,1.258,1.834,1.984,3.17,1.739l28.515-5.237l0.634,3.428     L163.429,156.721z" fill="#00203f" style=""></path></g></g></g><desc>Created with Snap</desc><defs></defs></g><g><g transform="matrix(1,0,0,-1,0,0)"><path d="M736 0L660 -7Q605 338 541 584Q508 506 468 364Q429 223 414 181Q412 181 407 180Q403 180 400 180Q386 180 354 183Q322 186 313 186Q312 215 262 379Q212 544 202 590Q184 428 62 0L0 6Q14 115 69 349Q124 583 134 711Q152 713 163 713Q173 713 237 705Q251 703 277 614Q304 526 331 420Q358 314 365 295Q393 364 432 519Q472 674 488 716Q504 715 589 707Q615 606 639 489Q664 372 692 223Q721 74 736 0ZM813 432L793 483Q819 509 859 524Q899 540 938 540Q1107 540 1107 248Q1107 208 1102 130Q1098 52 1098 13Q1090 -18 1067 -18Q1049 -18 1034 0Q1019 18 1019 40Q1019 47 1020 50Q958 -10 888 -10Q835 -10 795 28Q756 67 756 122Q756 215 828 290Q901 365 993 365Q997 365 1001 364Q1005 364 1010 363Q1016 362 1019 362Q1011 479 926 479Q876 479 813 432ZM1022 119Q1024 189 1024 225Q1024 255 1022 309L1014 309Q943 308 884 256Q826 204 826 130Q826 98 845 79Q865 60 893 60Q937 60 1022 119ZM1210 514L1256 504Q1264 422 1270 246Q1276 71 1278 29Q1269 -2 1243 -2Q1225 -2 1208 12Q1192 27 1188 48Q1190 89 1196 261Q1202 434 1210 514ZM1224 693Q1251 693 1269 669Q1287 646 1287 616Q1287 594 1276 580Q1266 567 1248 567Q1220 567 1204 590Q1188 613 1188 644Q1188 666 1197 679Q1207 693 1224 693ZM1437 400L1441 4Q1426 -4 1405 -4Q1389 -4 1369 1Q1372 64 1373 249Q1374 434 1381 523L1426 513L1429 457Q1482 513 1551 513Q1586 513 1607 508Q1628 503 1647 483Q1667 464 1677 432Q1687 400 1695 340Q1703 281 1706 201Q1710 122 1711 1Q1705 -1 1688 -1Q1652 -1 1632 8Q1628 24 1628 61Q1628 80 1629 132Q1631 185 1631 214Q1631 262 1627 298Q1624 334 1614 369Q1605 404 1585 423Q1566 442 1537 442Q1504 442 1485 437Q1467 432 1459 425Q1452 418 1437 400ZM2100 482L2090 442Q1993 482 1939 482Q1891 482 1871 467Q1852 453 1852 406Q1852 368 1879 343Q1907 318 1946 303Q1985 289 2024 272Q2064 256 2091 224Q2119 192 2119 145Q2119 81 2072 33Q2025 -15 1950 -16Q1895 -16 1847 7Q1799 30 1771 65L1800 95Q1812 90 1835 79Q1859 68 1869 64Q1879 61 1898 57Q1918 53 1940 53Q1987 53 2017 74Q2047 95 2047 133Q2047 158 2033 175Q2019 193 1996 204Q1973 215 1945 225Q1918 235 1890 247Q1863 260 1840 277Q1817 295 1803 325Q1789 355 1789 396Q1789 456 1821 496Q1854 537 1913 537Q1936 537 1965 530Q1994 523 2011 517Q2028 511 2061 497Q2095 484 2100 482Z" fill="#00203f" style=""></path></g></g></g></svg>