<svg version="1.1" xmlns="http://www.w3.org/2000/svg" viewBox="-297.2 -1094.2 2920.80625 1427.4"><desc>Created with Snap</desc><defs></defs><g><g><g transform="matrix(1,0,0,-1,0,0)"><g transform="matrix(1,0,0,1,0,0)"><path d="M28 57L42 113Q129 66 213 66Q273 66 315 90Q358 115 358 170Q358 219 322 259Q286 300 235 331Q184 362 133 394Q82 427 46 474Q10 522 10 580Q10 651 61 709Q112 768 184 768Q239 768 306 746Q374 724 420 702L408 662Q294 701 216 701Q168 701 134 670Q100 639 100 590Q100 553 119 523Q138 493 168 471Q199 449 236 428Q274 407 311 383Q348 359 378 331Q409 303 428 260Q447 218 447 165Q447 90 399 42Q351 -5 274 -5Q208 -5 133 13Q59 32 28 57Z" fill="#143d59" style=""></path></g><g transform="matrix(1,0,0,1,457,0)"><path d="M63 514L109 504Q117 422 123 246Q129 71 131 29Q122 -2 96 -2Q78 -2 61 12Q45 27 41 48Q43 89 49 261Q55 434 63 514ZM77 693Q104 693 122 669Q140 646 140 616Q140 594 129 580Q119 567 101 567Q73 567 57 590Q41 613 41 644Q41 666 50 679Q60 693 77 693Z" fill="#143d59" style=""></path></g><g transform="matrix(1,0,0,1,638,0)"><path d="M414 764L401 -26L346 -15Q346 5 345 15Q292 -19 233 -19Q142 -19 91 59Q41 137 41 236Q41 287 48 332Q56 377 74 424Q93 472 132 500Q172 528 228 528Q283 528 331 501Q339 607 339 715Q339 764 338 787Q386 778 414 764ZM337 81L334 403Q322 428 296 442Q271 457 242 457Q203 457 175 432Q148 407 136 365Q125 324 120 288Q116 252 116 212Q116 42 230 42Q268 42 299 52Q331 63 337 81Z" fill="#143d59" style=""></path></g><g transform="matrix(1,0,0,1,1092,0)"><g transform="matrix(1.3409,0,0,1.3409,-4.9717,528.6962)"><g transform="matrix(1,0,0,-1,0,0)">
<path d="M365.2,170.5C348.7,100.8,276,53.1,215.9,94.3c10.6-39.6,31.2-41.2,42.6-48.3c5.9-3.7,8.4-11.4,5.1-17.6
	c-9.6-18.5-52.9,17.9-55.8,26c-18-41.6-66.6-60.8-109.2-44.2c-2.8,25.6,6,52.7,24.6,70.9C-8.3,115.7,19.9,332.2,118,390.7
	c28.7,15,65.7-6.5,84.5-21.3c31.4,24,72.6,43.1,109.3,2.2c13.6-12.6,32.5-38.7,16.4-45.8c-5.8-2.6-12.7-1-17.4,3.4
	c-28.9,27.4-32.7,53.4-76.7,27.1c-14.3-8.9-24.9-20.1-36.2-16.7c-27.5,14.5-47.1,32.8-63.8,26.6C94.5,349,63.4,276.5,62.5,219.9
	c8.4,1.9,5.1,0.6,10.5,1c26.2,0,142.8,0,208.3,0C317.6,220.2,371.6,231,365.2,170.5z M160.3,31.3c18.8,9.7,31.9,28.4,34.3,50.1
	c-0.3,1-0.6,1.9-0.9,2.9c-9,1.6-18.2,1.2-27-1c-2.6-1-5.2-1.8-7.9-2.5c-21.9-8.1-39.2-31.4-40.4-55.4
	C132.6,22.5,147.2,24.6,160.3,31.3z M335.5,187.7c-2.2,2.9-5.6,4.6-9.3,4.6H67.8c-1.2,0-2.4,0.1-3.5,0.4c7.2-48.8,40-87.8,83.8-85
	c19.1,3.1,32.2,17.8,49.3,24.8c25.8,41.3,77.6,15.6,44.7-1.6c-7.9-0.5-16.1-1.2-20.6-6.2C288.8,70.6,346.3,161.9,335.5,187.7z" fill="#143d59" style=""></path>
<desc>Created with Snap</desc><defs></defs></g></g></g><g transform="matrix(1,0,0,1,1576.4062,0)"><path d="M371 381L327 384Q306 440 256 440Q234 440 209 430Q185 420 169 409Q153 399 127 379Q127 365 126 288Q126 211 127 117Q129 23 131 16Q122 -14 96 -14Q78 -14 61 0Q45 15 41 36Q60 357 75 521L120 511L123 444Q193 502 243 502Q298 502 335 477Q373 452 373 404Q373 389 371 381Z" fill="#143d59" style=""></path></g><g transform="matrix(1,0,0,1,1948.4062,0)"><path d="M349 482L339 442Q242 482 188 482Q140 482 120 467Q101 453 101 406Q101 368 128 343Q156 318 195 303Q234 289 273 272Q313 256 340 224Q368 192 368 145Q368 81 321 33Q274 -15 199 -16Q144 -16 96 7Q48 30 20 65L49 95Q61 90 84 79Q108 68 118 64Q128 61 147 57Q167 53 189 53Q236 53 266 74Q296 95 296 133Q296 158 282 175Q268 193 245 204Q222 215 194 225Q167 235 139 247Q112 260 89 277Q66 295 52 325Q38 355 38 396Q38 456 70 496Q103 537 162 537Q185 537 214 530Q243 523 260 517Q277 511 310 497Q344 484 349 482Z" fill="#143d59" style=""></path></g></g></g></g></svg>